<?xml version="1.0" standalone="no"?>
<!DOCTYPE svg PUBLIC "-//W3C//DTD SVG 20010904//EN"
 "http://www.w3.org/TR/2001/REC-SVG-20010904/DTD/svg10.dtd">
<svg version="1.0" xmlns="http://www.w3.org/2000/svg"
 width="146.000000pt" height="146.000000pt" viewBox="0 0 146.000000 146.000000"
 preserveAspectRatio="xMidYMid meet">

<g transform="translate(0.000000,146.000000) scale(0.100000,-0.100000)"
fill="#000000" stroke="none">
<path d="M426 1305 c-21 -7 -54 -26 -73 -42 -44 -36 -287 -432 -305 -496 -19
-72 -1 -119 130 -337 196 -327 184 -320 557 -320 373 0 361 -7 557 320 131
218 149 265 130 337 -7 26 -71 141 -141 257 -136 222 -172 264 -249 286 -58
16 -558 12 -606 -5z m474 -199 c98 -35 200 -139 242 -246 30 -76 30 -194 0
-270 -43 -110 -145 -212 -247 -247 -69 -25 -241 -25 -310 0 -102 35 -204 137
-247 247 -30 76 -30 194 0 270 45 115 147 214 257 250 48 16 79 19 160 16 57
-2 120 -11 145 -20z"/>
</g>
</svg>
